# xmcd CD database file
#
# Track frame offsets:
#	150
#	22940
#	46450
#	69192
#
# Disc length: 1232 seconds
#
# Revision: 0
# Processed by: cddbd v1.5.1PL0 Copyright (c) Steve Scherf et al.
# Submitted via: CDex 1.51
#
DISCID=2704ce04
DTITLE=PENICILLIN - NEW FUTURE
DYEAR=2002
DGENRE=JPop
TTITLE0=NEW FUTURE
TTITLE1=one star
TTITLE2=NEW FUTURE (INSTRUMENTAL)
TTITLE3=one star (INSTRUMENTAL)
EXTD=YEAR: 2002
EXTT0=
EXTT1=
EXTT2=
EXTT3=
PLAYORDER=
